<svg width="82" height="41" viewBox="0 0 82 41" fill="none" xmlns="http://www.w3.org/2000/svg">
<path d="M21 9H7C5.89543 9 5 9.89543 5 11V31C5 32.1046 5.89543 33 7 33H21C22.1046 33 23 32.1046 23 31V24V18V11C23 9.89543 22.1046 9 21 9Z" fill="url(#paint0_linear_6_2)"/>
<path d="M29 21C29 18.2386 26.7614 16 24 16H23V18H24C25.6569 18 27 19.3431 27 21V21C27 22.6569 25.6569 24 24 24H23V26H24C26.7614 26 29 23.7614 29 21V21Z" fill="url(#paint1_linear_6_2)"/>
<rect x="7" y="3" width="9" height="3" rx="1.5" fill="#E2E2E2"/>
<rect x="12" y="5" width="9" height="3" rx="1.5" fill="#CECECE"/>
<path d="M34.476 24.964V23.572L34.44 23.344V21.016C34.44 20.48 34.288 20.068 33.984 19.78C33.688 19.492 33.244 19.348 32.652 19.348C32.244 19.348 31.856 19.416 31.488 19.552C31.12 19.688 30.808 19.868 30.552 20.092L30.168 19.456C30.488 19.184 30.872 18.976 31.32 18.832C31.768 18.68 32.24 18.604 32.736 18.604C33.552 18.604 34.18 18.808 34.62 19.216C35.068 19.616 35.292 20.228 35.292 21.052V24.964H34.476ZM32.304 25.024C31.832 25.024 31.42 24.948 31.068 24.796C30.724 24.636 30.46 24.42 30.276 24.148C30.092 23.868 30 23.548 30 23.188C30 22.86 30.076 22.564 30.228 22.3C30.388 22.028 30.644 21.812 30.996 21.652C31.356 21.484 31.836 21.4 32.436 21.4H34.608V22.036H32.46C31.852 22.036 31.428 22.144 31.188 22.36C30.956 22.576 30.84 22.844 30.84 23.164C30.84 23.524 30.98 23.812 31.26 24.028C31.54 24.244 31.932 24.352 32.436 24.352C32.916 24.352 33.328 24.244 33.672 24.028C34.024 23.804 34.28 23.484 34.44 23.068L34.632 23.656C34.472 24.072 34.192 24.404 33.792 24.652C33.4 24.9 32.904 25.024 32.304 25.024Z" fill="white"/>
<path d="M37.7501 24.964V17.872C37.7501 17.312 37.9141 16.86 38.2421 16.516C38.5701 16.172 39.0421 16 39.6581 16C39.8981 16 40.1301 16.032 40.3541 16.096C40.5781 16.16 40.7661 16.26 40.9181 16.396L40.6301 17.032C40.5101 16.928 40.3701 16.852 40.2101 16.804C40.0501 16.748 39.8781 16.72 39.6941 16.72C39.3341 16.72 39.0581 16.82 38.8661 17.02C38.6741 17.22 38.5781 17.516 38.5781 17.908V18.868L38.6021 19.264V24.964H37.7501ZM36.6221 19.372V18.664H40.5221V19.372H36.6221Z" fill="white"/>
<path d="M44.2431 25.024C43.5871 25.024 43.0111 24.888 42.5151 24.616C42.0191 24.336 41.6311 23.956 41.3511 23.476C41.0711 22.988 40.9311 22.432 40.9311 21.808C40.9311 21.184 41.0631 20.632 41.3271 20.152C41.5991 19.672 41.9671 19.296 42.4311 19.024C42.9031 18.744 43.4311 18.604 44.0151 18.604C44.6071 18.604 45.1311 18.74 45.5871 19.012C46.0511 19.276 46.4151 19.652 46.6791 20.14C46.9431 20.62 47.0751 21.176 47.0751 21.808C47.0751 21.848 47.0711 21.892 47.0631 21.94C47.0631 21.98 47.0631 22.024 47.0631 22.072H41.5791V21.436H46.6071L46.2711 21.688C46.2711 21.232 46.1711 20.828 45.9711 20.476C45.7791 20.116 45.5151 19.836 45.1791 19.636C44.8431 19.436 44.4551 19.336 44.0151 19.336C43.5831 19.336 43.1951 19.436 42.8511 19.636C42.5071 19.836 42.2391 20.116 42.0471 20.476C41.8551 20.836 41.7591 21.248 41.7591 21.712V21.844C41.7591 22.324 41.8631 22.748 42.0711 23.116C42.2871 23.476 42.5831 23.76 42.9591 23.968C43.3431 24.168 43.7791 24.268 44.2671 24.268C44.6511 24.268 45.0071 24.2 45.3351 24.064C45.6711 23.928 45.9591 23.72 46.1991 23.44L46.6791 23.992C46.3991 24.328 46.0471 24.584 45.6231 24.76C45.2071 24.936 44.7471 25.024 44.2431 25.024Z" fill="white"/>
<path d="M48.9893 24.964V16.564H52.6133C53.5493 16.564 54.2733 16.752 54.7853 17.128C55.3053 17.504 55.5653 18.036 55.5653 18.724C55.5653 19.18 55.4573 19.564 55.2413 19.876C55.0333 20.188 54.7453 20.424 54.3773 20.584C54.0173 20.744 53.6213 20.824 53.1893 20.824L53.3932 20.536C53.9292 20.536 54.3893 20.62 54.7733 20.788C55.1653 20.948 55.4693 21.192 55.6853 21.52C55.9013 21.84 56.0093 22.24 56.0093 22.72C56.0093 23.432 55.7453 23.984 55.2173 24.376C54.6973 24.768 53.9092 24.964 52.8532 24.964H48.9893ZM49.8773 24.232H52.8413C53.5773 24.232 54.1413 24.108 54.5333 23.86C54.9253 23.604 55.1213 23.2 55.1213 22.648C55.1213 22.104 54.9253 21.708 54.5333 21.46C54.1413 21.204 53.5773 21.076 52.8413 21.076H49.7812V20.344H52.5532C53.2252 20.344 53.7453 20.216 54.1133 19.96C54.4893 19.704 54.6772 19.324 54.6772 18.82C54.6772 18.308 54.4893 17.928 54.1133 17.68C53.7453 17.424 53.2252 17.296 52.5532 17.296H49.8773V24.232Z" fill="white"/>
<path d="M61.8041 24.964V23.572L61.7681 23.344V21.016C61.7681 20.48 61.6161 20.068 61.3121 19.78C61.0161 19.492 60.5721 19.348 59.9801 19.348C59.5721 19.348 59.1841 19.416 58.8161 19.552C58.4481 19.688 58.1361 19.868 57.8801 20.092L57.4961 19.456C57.8161 19.184 58.2001 18.976 58.6481 18.832C59.0961 18.68 59.5681 18.604 60.0641 18.604C60.8801 18.604 61.5081 18.808 61.9481 19.216C62.3961 19.616 62.6201 20.228 62.6201 21.052V24.964H61.8041ZM59.6321 25.024C59.1601 25.024 58.7481 24.948 58.3961 24.796C58.0521 24.636 57.7881 24.42 57.6041 24.148C57.4201 23.868 57.3281 23.548 57.3281 23.188C57.3281 22.86 57.4041 22.564 57.5561 22.3C57.7161 22.028 57.9721 21.812 58.3241 21.652C58.6841 21.484 59.1641 21.4 59.7641 21.4H61.9361V22.036H59.7881C59.1801 22.036 58.7561 22.144 58.5161 22.36C58.2841 22.576 58.1681 22.844 58.1681 23.164C58.1681 23.524 58.3081 23.812 58.5881 24.028C58.8681 24.244 59.2601 24.352 59.7641 24.352C60.2441 24.352 60.6561 24.244 61.0001 24.028C61.3521 23.804 61.6081 23.484 61.7681 23.068L61.9601 23.656C61.8001 24.072 61.5201 24.404 61.1201 24.652C60.7281 24.9 60.2321 25.024 59.6321 25.024Z" fill="white"/>
<path d="M68.1863 25.024C67.6343 25.024 67.1382 24.9 66.6982 24.652C66.2582 24.396 65.9103 24.028 65.6543 23.548C65.3983 23.068 65.2703 22.488 65.2703 21.808C65.2703 21.12 65.3983 20.54 65.6543 20.068C65.9183 19.588 66.2703 19.224 66.7103 18.976C67.1503 18.728 67.6423 18.604 68.1863 18.604C68.7863 18.604 69.3223 18.74 69.7943 19.012C70.2743 19.276 70.6503 19.648 70.9223 20.128C71.1943 20.608 71.3302 21.168 71.3302 21.808C71.3302 22.44 71.1943 23 70.9223 23.488C70.6503 23.968 70.2743 24.344 69.7943 24.616C69.3223 24.888 68.7863 25.024 68.1863 25.024ZM64.9342 24.964V16.06H65.7863V20.524L65.6663 21.796L65.7503 23.068V24.964H64.9342ZM68.1263 24.268C68.5743 24.268 68.9743 24.168 69.3263 23.968C69.6783 23.76 69.9583 23.472 70.1663 23.104C70.3743 22.728 70.4783 22.296 70.4783 21.808C70.4783 21.312 70.3743 20.88 70.1663 20.512C69.9583 20.144 69.6783 19.86 69.3263 19.66C68.9743 19.452 68.5743 19.348 68.1263 19.348C67.6783 19.348 67.2742 19.452 66.9142 19.66C66.5622 19.86 66.2822 20.144 66.0742 20.512C65.8742 20.88 65.7743 21.312 65.7743 21.808C65.7743 22.296 65.8742 22.728 66.0742 23.104C66.2822 23.472 66.5622 23.76 66.9142 23.968C67.2742 24.168 67.6783 24.268 68.1263 24.268Z" fill="white"/>
<path d="M75.7431 25.024C75.0871 25.024 74.5111 24.888 74.0151 24.616C73.5191 24.336 73.1311 23.956 72.8511 23.476C72.5711 22.988 72.4311 22.432 72.4311 21.808C72.4311 21.184 72.5631 20.632 72.8271 20.152C73.0991 19.672 73.4671 19.296 73.9311 19.024C74.4031 18.744 74.9311 18.604 75.5151 18.604C76.1071 18.604 76.6311 18.74 77.0871 19.012C77.5511 19.276 77.9151 19.652 78.1791 20.14C78.4431 20.62 78.5751 21.176 78.5751 21.808C78.5751 21.848 78.5711 21.892 78.5631 21.94C78.5631 21.98 78.5631 22.024 78.5631 22.072H73.0791V21.436H78.1071L77.7711 21.688C77.7711 21.232 77.6711 20.828 77.4711 20.476C77.2791 20.116 77.0151 19.836 76.6791 19.636C76.3431 19.436 75.9551 19.336 75.5151 19.336C75.0831 19.336 74.6951 19.436 74.3511 19.636C74.0071 19.836 73.7391 20.116 73.5471 20.476C73.3551 20.836 73.2591 21.248 73.2591 21.712V21.844C73.2591 22.324 73.3631 22.748 73.5711 23.116C73.7871 23.476 74.0831 23.76 74.4591 23.968C74.8431 24.168 75.2791 24.268 75.7671 24.268C76.1511 24.268 76.5071 24.2 76.8351 24.064C77.1711 23.928 77.4591 23.72 77.6991 23.44L78.1791 23.992C77.8991 24.328 77.5471 24.584 77.1231 24.76C76.7071 24.936 76.2471 25.024 75.7431 25.024Z" fill="white"/>
<path d="M23.9061 25.5C23.2721 25.5 22.6862 25.3904 22.1485 25.1713C21.6108 24.9438 21.1453 24.6278 20.752 24.2233C20.3587 23.8188 20.0498 23.3427 19.825 22.7949C19.6083 22.2472 19.5 21.6489 19.5 21C19.5 20.3511 19.6083 19.7528 19.825 19.2051C20.0498 18.6573 20.3587 18.1812 20.752 17.7767C21.1533 17.3722 21.6228 17.0604 22.1605 16.8413C22.6982 16.6138 23.2841 16.5 23.9181 16.5C24.5281 16.5 25.1019 16.6096 25.6396 16.8287C26.1774 17.0393 26.6308 17.3596 27 17.7893L26.4342 18.3834C26.0891 18.0126 25.7079 17.7472 25.2905 17.5871C24.8732 17.4185 24.4238 17.3343 23.9422 17.3343C23.4366 17.3343 22.9671 17.427 22.5337 17.6124C22.1003 17.7893 21.7231 18.0463 21.4021 18.3834C21.0811 18.7121 20.8283 19.0997 20.6437 19.5463C20.4671 19.9846 20.3788 20.4691 20.3788 21C20.3788 21.5309 20.4671 22.0197 20.6437 22.4663C20.8283 22.9045 21.0811 23.2921 21.4021 23.6292C21.7231 23.9579 22.1003 24.2149 22.5337 24.4003C22.9671 24.5772 23.4366 24.6657 23.9422 24.6657C24.4238 24.6657 24.8732 24.5815 25.2905 24.4129C25.7079 24.2444 26.0891 23.9747 26.4342 23.6039L27 24.198C26.6308 24.6278 26.1774 24.9522 25.6396 25.1713C25.1019 25.3904 24.5241 25.5 23.9061 25.5Z" fill="white"/>
<rect x="3" y="35" width="22" height="3" rx="1.5" fill="#D6BBB0"/>
<defs>
<linearGradient id="paint0_linear_6_2" x1="23" y1="9" x2="5" y2="33" gradientUnits="userSpaceOnUse">
<stop stop-color="#E24462"/>
<stop offset="1" stop-color="#B125EA"/>
</linearGradient>
<linearGradient id="paint1_linear_6_2" x1="23" y1="9" x2="5" y2="33" gradientUnits="userSpaceOnUse">
<stop stop-color="#E24462"/>
<stop offset="1" stop-color="#B125EA"/>
</linearGradient>
</defs>
</svg>
